<?xml version="1.0" encoding="UTF-8" standalone="no"?>
<!-- Created with Inkscape (http://www.inkscape.org/) -->

<svg
   xmlns:dc="http://purl.org/dc/elements/1.1/"
   xmlns:cc="http://creativecommons.org/ns#"
   xmlns:rdf="http://www.w3.org/1999/02/22-rdf-syntax-ns#"
   xmlns:svg="http://www.w3.org/2000/svg"
   xmlns="http://www.w3.org/2000/svg"
   xmlns:sodipodi="http://sodipodi.sourceforge.net/DTD/sodipodi-0.dtd"
   xmlns:inkscape="http://www.inkscape.org/namespaces/inkscape"
   width="64"
   height="64"
   id="svg3361"
   version="1.1"
   inkscape:version="0.91 r13725"
   viewBox="0 0 64 64"
   sodipodi:docname="dash.svg">
  <defs
     id="defs3363" />
  <sodipodi:namedview
     id="base"
     pagecolor="#ffffff"
     bordercolor="#666666"
     borderopacity="1.0"
     inkscape:pageopacity="0.0"
     inkscape:pageshadow="2"
     inkscape:zoom="6.302028"
     inkscape:cx="32"
     inkscape:cy="33.31362"
     inkscape:current-layer="layer1"
     showgrid="true"
     inkscape:document-units="px"
     inkscape:grid-bbox="true"
     inkscape:window-width="2560"
     inkscape:window-height="1381"
     inkscape:window-x="0"
     inkscape:window-y="27"
     inkscape:window-maximized="1" />
  <metadata
     id="metadata3366">
    <rdf:RDF>
      <cc:Work
         rdf:about="">
        <dc:format>image/svg+xml</dc:format>
        <dc:type
           rdf:resource="http://purl.org/dc/dcmitype/StillImage" />
        <dc:title></dc:title>
      </cc:Work>
    </rdf:RDF>
  </metadata>
  <g
     id="layer1"
     inkscape:label="Layer 1"
     inkscape:groupmode="layer">
    <g
       id="g5"
       transform="matrix(0.20454399,0,0,0.20447814,-2.2350256,-2.2520945)">
      <path
         class="st0"
         d="M 167.2,323.3 C 253,323.3 322.5,253.8 322.5,168 322.5,82.2 253,12.7 167.2,12.7 81.4,12.7 12,82.2 12,168 c 0,85.8 69.5,155.3 155.2,155.3"
         id="path7"
         inkscape:connector-curvature="0"
         style="fill:#008ce3" />
      <path
         class="st1"
         d="m 190.9,100 -61,0 -5,28.2 55,0.1 c 27.1,0 35.1,9.8 34.9,26.1 -0.1,8.4 -3.7,22.5 -5.3,27.1 -4.2,12.2 -12.7,26.2 -44.9,26.1 l -53.5,0 -5.1,28.3 60.8,0 c 21.4,0 30.6,-2.5 40.2,-7 21.4,-9.9 34.2,-31 39.3,-58.6 C 254,129.2 244.5,100 190.9,100"
         id="path9"
         inkscape:connector-curvature="0"
         style="fill:#ffffff" />
      <path
         class="st1"
         d="m 103.7,153.8 c -16,0 -18.3,10.4 -19.8,16.7 -2,8.2 -2.6,11.6 -2.6,11.6 l 62.4,0 c 16,0 18.3,-10.4 19.8,-16.7 2,-8.2 2.6,-11.6 2.6,-11.6 l -62.4,0 z"
         id="path11"
         inkscape:connector-curvature="0"
         style="fill:#ffffff" />
    </g>
  </g>
</svg>
